ffmpeg started on 2026-01-20 at 18:52:01
Report written to "D:\Convert\FFMetrics\reports\ssim_report-6.txt"
Log level: 32
Command line:
ffmpeg -hide_banner -nostdin -r 24000/1001 -i "F:\\Convert\\files\\[DC] Make Heroine ga Oosugiru - 07_Telegram_HEVC(217).mkv" -r 24000/1001 -i "F:\\Convert\\files\\[DC] Make Heroine ga Oosugiru - 07_Telegram.mp4" -lavfi "[0:v]settb=AVTB,setpts=PTS-STARTPTS,format=pix_fmts=yuv420p10le,fps=24000/1001,scale=1920:1080:flags=lanczos:param0=3:out_range=limited:out_color_matrix=bt709:out_chroma_loc=left,setsar=1/1,setdar=(1920/1080)*(1/1),colorspace=format=yuv420p10:range=tv:primaries=bt709:trc=bt709:space=bt709:fast=0[main];[1:v]settb=AVTB,setpts=PTS-STARTPTS,format=pix_fmts=yuv420p,fps=24000/1001,scale=1920:1080:flags=lanczos:param0=3:out_range=limited:out_color_matrix=bt709:out_chroma_loc=left,setsar=1.000,setdar=1.778,colorspace=format=yuv420p:range=tv:primaries=bt709:trc=bt709:space=bt709:fast=0[ref];[main][ref]ssim=eof_action=endall:stats_file='D\\:/Convert/FFMetrics/logs/ssim_logfile-6.txt'" -f null -
Input #0, matroska,webm, from 'F:\Convert\files\[DC] Make Heroine ga Oosugiru - 07_Telegram_HEVC(217).mkv':
  Metadata:
    COMPATIBLE_BRANDS: isomiso2avc1mp41
    MAJOR_BRAND     : isom
    MINOR_VERSION   : 512
    ENCODER         : Lavf61.7.100
  Duration: 00:24:06.79, start: -0.021000, bitrate: 935 kb/s
  Stream #0:0: Video: hevc (Main 10), yuv420p10le(tv, bt709, progressive), 1920x1080 [SAR 1:1 DAR 16:9], 23.98 fps, 23.98 tbr, 1k tbn (default)
      Metadata:
        HANDLER_NAME    : VideoHandler
        VENDOR_ID       : [0][0][0][0]
        ENCODER         : Lavc61.19.100 libx265
        BPS             : 738664
        DURATION        : 00:24:06.569708333
        NUMBER_OF_FRAMES: 34683
        NUMBER_OF_BYTES : 133566058
        _STATISTICS_WRITING_APP: mkvpropedit v94.0 ('Initiate') 64-bit
        _STATISTICS_WRITING_DATE_UTC: 2026-01-20 14:27:25
        _STATISTICS_TAGS: BPS DURATION NUMBER_OF_FRAMES NUMBER_OF_BYTES
  Stream #0:1: Audio: aac (LC), 48000 Hz, stereo, fltp (default)
      Metadata:
        HANDLER_NAME    : SoundHandler
        VENDOR_ID       : [0][0][0][0]
        ENCODER         : Lavc61.19.100 aac
        BPS             : 193194
        DURATION        : 00:24:06.784000000
        NUMBER_OF_FRAMES: 67819
        NUMBER_OF_BYTES : 34938755
        _STATISTICS_WRITING_APP: mkvpropedit v94.0 ('Initiate') 64-bit
        _STATISTICS_WRITING_DATE_UTC: 2026-01-20 14:27:25
        _STATISTICS_TAGS: BPS DURATION NUMBER_OF_FRAMES NUMBER_OF_BYTES
Input #1, mov,mp4,m4a,3gp,3g2,mj2, from 'F:\Convert\files\[DC] Make Heroine ga Oosugiru - 07_Telegram.mp4':
  Metadata:
    major_brand     : isom
    minor_version   : 512
    compatible_brands: isomiso2avc1mp41
    encoder         : Lavf60.16.100
  Duration: 00:24:06.74, start: 0.000000, bitrate: 3764 kb/s
  Stream #1:0[0x1](und): Video: h264 (High) (avc1 / 0x31637661), yuv420p(tv, bt709, progressive), 1920x1080 [SAR 1:1 DAR 16:9], 3616 kb/s, 23.98 fps, 23.98 tbr, 24k tbn (default)
      Metadata:
        handler_name    : VideoHandler
        vendor_id       : [0][0][0][0]
        encoder         : Lavc60.31.102 h264_qsv
  Stream #1:1[0x2](und): Audio: aac (HE-AACv2) (mp4a / 0x6134706D), 48000 Hz, stereo, fltp, 144 kb/s (default)
      Metadata:
        handler_name    : SoundHandler
        vendor_id       : [0][0][0][0]
Stream mapping:
  Stream #0:0 (hevc) -> settb:default
  Stream #1:0 (h264) -> settb:default
  ssim:default -> Stream #0:0 (wrapped_avframe)
  Stream #0:1 -> #0:1 (aac (native) -> pcm_s16le (native))
Output #0, null, to 'pipe:':
  Metadata:
    COMPATIBLE_BRANDS: isomiso2avc1mp41
    MAJOR_BRAND     : isom
    MINOR_VERSION   : 512
    encoder         : Lavf61.7.100
  Stream #0:0: Video: wrapped_avframe, yuv420p10le(tv, bt709, progressive), 1920x1080 [SAR 1:1 DAR 16:9], q=2-31, 200 kb/s, 23.98 fps, 23.98 tbn
      Metadata:
        encoder         : Lavc61.19.100 wrapped_avframe
  Stream #0:1: Audio: pcm_s16le, 48000 Hz, stereo, s16, 1536 kb/s (default)
      Metadata:
        HANDLER_NAME    : SoundHandler
        VENDOR_ID       : [0][0][0][0]
        _STATISTICS_TAGS: BPS DURATION NUMBER_OF_FRAMES NUMBER_OF_BYTES
        BPS             : 193194
        DURATION        : 00:24:06.784000000
        NUMBER_OF_FRAMES: 67819
        NUMBER_OF_BYTES : 34938755
        _STATISTICS_WRITING_APP: mkvpropedit v94.0 ('Initiate') 64-bit
        _STATISTICS_WRITING_DATE_UTC: 2026-01-20 14:27:25
        encoder         : Lavc61.19.100 pcm_s16le
frame=  139 fps=0.0 q=-0.0 size=N/A time=00:00:05.79 bitrate=N/A speed=11.2x    frame=  335 fps=321 q=-0.0 size=N/A time=00:00:13.97 bitrate=N/A speed=13.4x    frame=  528 fps=340 q=-0.0 size=N/A time=00:00:22.02 bitrate=N/A speed=14.2x    frame=  721 fps=349 q=-0.0 size=N/A time=00:00:30.07 bitrate=N/A speed=14.6x    frame=  899 fps=349 q=-0.0 size=N/A time=00:00:37.49 bitrate=N/A speed=14.5x    frame= 1051 fps=338 q=-0.0 size=N/A time=00:00:43.83 bitrate=N/A speed=14.1x    frame= 1215 fps=336 q=-0.0 size=N/A time=00:00:50.67 bitrate=N/A speed=  14x    frame= 1375 fps=333 q=-0.0 size=N/A time=00:00:57.34 bitrate=N/A speed=13.9x    frame= 1538 fps=331 q=-0.0 size=N/A time=00:01:04.14 bitrate=N/A speed=13.8x    frame= 1685 fps=326 q=-0.0 size=N/A time=00:01:10.27 bitrate=N/A speed=13.6x    frame= 1863 fps=328 q=-0.0 size=N/A time=00:01:17.70 bitrate=N/A speed=13.7x    frame= 2034 fps=329 q=-0.0 size=N/A time=00:01:24.83 bitrate=N/A speed=13.7x    frame= 2147 fps=320 q=-0.0 size=N/A time=00:01:29.54 bitrate=N/A speed=13.3x    frame= 2308 fps=319 q=-0.0 size=N/A time=00:01:36.26 bitrate=N/A speed=13.3x    frame= 2455 fps=317 q=-0.0 size=N/A time=00:01:42.39 bitrate=N/A speed=13.2x    frame= 2599 fps=315 q=-0.0 size=N/A time=00:01:48.39 bitrate=N/A speed=13.1x    frame= 2771 fps=316 q=-0.0 size=N/A time=00:01:55.57 bitrate=N/A speed=13.2x    frame= 2950 fps=317 q=-0.0 size=N/A time=00:02:03.03 bitrate=N/A speed=13.2x    frame= 3129 fps=319 q=-0.0 size=N/A time=00:02:10.50 bitrate=N/A speed=13.3x    frame= 3317 fps=322 q=-0.0 size=N/A time=00:02:18.34 bitrate=N/A speed=13.4x    frame= 3514 fps=324 q=-0.0 size=N/A time=00:02:26.56 bitrate=N/A speed=13.5x    frame= 3705 fps=326 q=-0.0 size=N/A time=00:02:34.52 bitrate=N/A speed=13.6x    frame= 3891 fps=328 q=-0.0 size=N/A time=00:02:42.28 bitrate=N/A speed=13.7x    frame= 4085 fps=330 q=-0.0 size=N/A time=00:02:50.37 bitrate=N/A speed=13.8x    frame= 4274 fps=331 q=-0.0 size=N/A time=00:02:58.26 bitrate=N/A speed=13.8x    frame= 4472 fps=333 q=-0.0 size=N/A time=00:03:06.51 bitrate=N/A speed=13.9x    frame= 4657 fps=334 q=-0.0 size=N/A time=00:03:14.23 bitrate=N/A speed=13.9x    frame= 4846 fps=336 q=-0.0 size=N/A time=00:03:22.11 bitrate=N/A speed=  14x    frame= 5035 fps=337 q=-0.0 size=N/A time=00:03:30.00 bitrate=N/A speed=  14x    frame= 5231 fps=338 q=-0.0 size=N/A time=00:03:38.17 bitrate=N/A speed=14.1x    frame= 5422 fps=339 q=-0.0 size=N/A time=00:03:46.14 bitrate=N/A speed=14.1x    frame= 5605 fps=340 q=-0.0 size=N/A time=00:03:53.77 bitrate=N/A speed=14.2x    frame= 5797 fps=341 q=-0.0 size=N/A time=00:04:01.78 bitrate=N/A speed=14.2x    frame= 5990 fps=341 q=-0.0 size=N/A time=00:04:09.83 bitrate=N/A speed=14.2x    frame= 6177 fps=342 q=-0.0 size=N/A time=00:04:17.63 bitrate=N/A speed=14.3x    frame= 6373 fps=343 q=-0.0 size=N/A time=00:04:25.80 bitrate=N/A speed=14.3x    frame= 6564 fps=344 q=-0.0 size=N/A time=00:04:33.77 bitrate=N/A speed=14.3x    frame= 6753 fps=345 q=-0.0 size=N/A time=00:04:41.65 bitrate=N/A speed=14.4x    frame= 6945 fps=345 q=-0.0 size=N/A time=00:04:49.66 bitrate=N/A speed=14.4x    frame= 7131 fps=346 q=-0.0 size=N/A time=00:04:57.42 bitrate=N/A speed=14.4x    frame= 7315 fps=346 q=-0.0 size=N/A time=00:05:05.09 bitrate=N/A speed=14.4x    frame= 7505 fps=346 q=-0.0 size=N/A time=00:05:13.02 bitrate=N/A speed=14.4x    frame= 7683 fps=346 q=-0.0 size=N/A time=00:05:20.44 bitrate=N/A speed=14.4x    frame= 7869 fps=347 q=-0.0 size=N/A time=00:05:28.20 bitrate=N/A speed=14.5x    frame= 8056 fps=347 q=-0.0 size=N/A time=00:05:36.00 bitrate=N/A speed=14.5x    frame= 8249 fps=348 q=-0.0 size=N/A time=00:05:44.05 bitrate=N/A speed=14.5x    frame= 8432 fps=348 q=-0.0 size=N/A time=00:05:51.68 bitrate=N/A speed=14.5x    frame= 8623 fps=348 q=-0.0 size=N/A time=00:05:59.65 bitrate=N/A speed=14.5x    frame= 8813 fps=349 q=-0.0 size=N/A time=00:06:07.57 bitrate=N/A speed=14.5x    frame= 8999 fps=349 q=-0.0 size=N/A time=00:06:15.33 bitrate=N/A speed=14.6x    frame= 9195 fps=350 q=-0.0 size=N/A time=00:06:23.50 bitrate=N/A speed=14.6x    frame= 9381 fps=350 q=-0.0 size=N/A time=00:06:31.26 bitrate=N/A speed=14.6x    frame= 9565 fps=350 q=-0.0 size=N/A time=00:06:38.94 bitrate=N/A speed=14.6x    frame= 9757 fps=350 q=-0.0 size=N/A time=00:06:46.94 bitrate=N/A speed=14.6x    frame= 9948 fps=351 q=-0.0 size=N/A time=00:06:54.91 bitrate=N/A speed=14.6x    frame=10141 fps=351 q=-0.0 size=N/A time=00:07:02.96 bitrate=N/A speed=14.6x    frame=10329 fps=351 q=-0.0 size=N/A time=00:07:10.80 bitrate=N/A speed=14.7x    frame=10508 fps=351 q=-0.0 size=N/A time=00:07:18.27 bitrate=N/A speed=14.7x    frame=10695 fps=351 q=-0.0 size=N/A time=00:07:26.07 bitrate=N/A speed=14.7x    frame=10879 fps=352 q=-0.0 size=N/A time=00:07:33.74 bitrate=N/A speed=14.7x    frame=11070 fps=352 q=-0.0 size=N/A time=00:07:41.71 bitrate=N/A speed=14.7x    frame=11250 fps=352 q=-0.0 size=N/A time=00:07:49.21 bitrate=N/A speed=14.7x    frame=11435 fps=352 q=-0.0 size=N/A time=00:07:56.93 bitrate=N/A speed=14.7x    frame=11627 fps=352 q=-0.0 size=N/A time=00:08:04.94 bitrate=N/A speed=14.7x    frame=11820 fps=353 q=-0.0 size=N/A time=00:08:12.99 bitrate=N/A speed=14.7x    frame=12010 fps=353 q=-0.0 size=N/A time=00:08:20.91 bitrate=N/A speed=14.7x    frame=12196 fps=353 q=-0.0 size=N/A time=00:08:28.67 bitrate=N/A speed=14.7x    frame=12396 fps=353 q=-0.0 size=N/A time=00:08:37.01 bitrate=N/A speed=14.7x    frame=12582 fps=354 q=-0.0 size=N/A time=00:08:44.77 bitrate=N/A speed=14.7x    frame=12774 fps=354 q=-0.0 size=N/A time=00:08:52.78 bitrate=N/A speed=14.8x    frame=12962 fps=354 q=-0.0 size=N/A time=00:09:00.62 bitrate=N/A speed=14.8x    frame=13150 fps=354 q=-0.0 size=N/A time=00:09:08.46 bitrate=N/A speed=14.8x    frame=13338 fps=354 q=-0.0 size=N/A time=00:09:16.30 bitrate=N/A speed=14.8x    frame=13521 fps=354 q=-0.0 size=N/A time=00:09:23.93 bitrate=N/A speed=14.8x    frame=13708 fps=354 q=-0.0 size=N/A time=00:09:31.73 bitrate=N/A speed=14.8x    frame=13907 fps=355 q=-0.0 size=N/A time=00:09:40.03 bitrate=N/A speed=14.8x    frame=14086 fps=355 q=-0.0 size=N/A time=00:09:47.50 bitrate=N/A speed=14.8x    frame=14266 fps=355 q=-0.0 size=N/A time=00:09:55.01 bitrate=N/A speed=14.8x    frame=14456 fps=355 q=-0.0 size=N/A time=00:10:02.93 bitrate=N/A speed=14.8x    frame=14644 fps=355 q=-0.0 size=N/A time=00:10:10.77 bitrate=N/A speed=14.8x    frame=14828 fps=355 q=-0.0 size=N/A time=00:10:18.45 bitrate=N/A speed=14.8x    frame=15024 fps=355 q=-0.0 size=N/A time=00:10:26.62 bitrate=N/A speed=14.8x    frame=15195 fps=355 q=-0.0 size=N/A time=00:10:33.75 bitrate=N/A speed=14.8x    frame=15363 fps=355 q=-0.0 size=N/A time=00:10:40.76 bitrate=N/A speed=14.8x    frame=15553 fps=355 q=-0.0 size=N/A time=00:10:48.68 bitrate=N/A speed=14.8x    frame=15745 fps=355 q=-0.0 size=N/A time=00:10:56.69 bitrate=N/A speed=14.8x    frame=15940 fps=355 q=-0.0 size=N/A time=00:11:04.83 bitrate=N/A speed=14.8x    frame=16134 fps=355 q=-0.0 size=N/A time=00:11:12.92 bitrate=N/A speed=14.8x    frame=16323 fps=356 q=-0.0 size=N/A time=00:11:20.80 bitrate=N/A speed=14.8x    frame=16508 fps=356 q=-0.0 size=N/A time=00:11:28.52 bitrate=N/A speed=14.8x    frame=16699 fps=356 q=-0.0 size=N/A time=00:11:36.48 bitrate=N/A speed=14.8x    frame=16901 fps=356 q=-0.0 size=N/A time=00:11:44.91 bitrate=N/A speed=14.9x    frame=17092 fps=356 q=-0.0 size=N/A time=00:11:52.87 bitrate=N/A speed=14.9x    frame=17283 fps=356 q=-0.0 size=N/A time=00:12:00.84 bitrate=N/A speed=14.9x    frame=17479 fps=357 q=-0.0 size=N/A time=00:12:09.01 bitrate=N/A speed=14.9x    frame=17670 fps=357 q=-0.0 size=N/A time=00:12:16.98 bitrate=N/A speed=14.9x    frame=17856 fps=357 q=-0.0 size=N/A time=00:12:24.74 bitrate=N/A speed=14.9x    frame=18043 fps=357 q=-0.0 size=N/A time=00:12:32.54 bitrate=N/A speed=14.9x    frame=18239 fps=357 q=-0.0 size=N/A time=00:12:40.71 bitrate=N/A speed=14.9x    frame=18428 fps=357 q=-0.0 size=N/A time=00:12:48.60 bitrate=N/A speed=14.9x    frame=18619 fps=357 q=-0.0 size=N/A time=00:12:56.56 bitrate=N/A speed=14.9x    frame=18816 fps=358 q=-0.0 size=N/A time=00:13:04.78 bitrate=N/A speed=14.9x    frame=19013 fps=358 q=-0.0 size=N/A time=00:13:13.00 bitrate=N/A speed=14.9x    frame=19199 fps=358 q=-0.0 size=N/A time=00:13:20.75 bitrate=N/A speed=14.9x    frame=19400 fps=358 q=-0.0 size=N/A time=00:13:29.14 bitrate=N/A speed=14.9x    frame=19594 fps=358 q=-0.0 size=N/A time=00:13:37.23 bitrate=N/A speed=14.9x    frame=19784 fps=358 q=-0.0 size=N/A time=00:13:45.15 bitrate=N/A speed=  15x    frame=19982 fps=359 q=-0.0 size=N/A time=00:13:53.41 bitrate=N/A speed=  15x    frame=20177 fps=359 q=-0.0 size=N/A time=00:14:01.54 bitrate=N/A speed=  15x    frame=20359 fps=359 q=-0.0 size=N/A time=00:14:09.13 bitrate=N/A speed=  15x    frame=20536 fps=359 q=-0.0 size=N/A time=00:14:16.52 bitrate=N/A speed=  15x    frame=20731 fps=359 q=-0.0 size=N/A time=00:14:24.65 bitrate=N/A speed=  15x    frame=20924 fps=359 q=-0.0 size=N/A time=00:14:32.70 bitrate=N/A speed=  15x    frame=21116 fps=359 q=-0.0 size=N/A time=00:14:40.71 bitrate=N/A speed=  15x    frame=21309 fps=359 q=-0.0 size=N/A time=00:14:48.76 bitrate=N/A speed=  15x    frame=21502 fps=359 q=-0.0 size=N/A time=00:14:56.81 bitrate=N/A speed=  15x    frame=21694 fps=359 q=-0.0 size=N/A time=00:15:04.82 bitrate=N/A speed=  15x    frame=21883 fps=360 q=-0.0 size=N/A time=00:15:12.70 bitrate=N/A speed=  15x    frame=22083 fps=360 q=-0.0 size=N/A time=00:15:21.04 bitrate=N/A speed=  15x    frame=22277 fps=360 q=-0.0 size=N/A time=00:15:29.13 bitrate=N/A speed=  15x    frame=22467 fps=360 q=-0.0 size=N/A time=00:15:37.06 bitrate=N/A speed=  15x    frame=22663 fps=360 q=-0.0 size=N/A time=00:15:45.23 bitrate=N/A speed=  15x    frame=22852 fps=360 q=-0.0 size=N/A time=00:15:53.11 bitrate=N/A speed=  15x    frame=23043 fps=360 q=-0.0 size=N/A time=00:16:01.08 bitrate=N/A speed=  15x    frame=23231 fps=360 q=-0.0 size=N/A time=00:16:08.92 bitrate=N/A speed=  15x    frame=23423 fps=360 q=-0.0 size=N/A time=00:16:16.93 bitrate=N/A speed=  15x    frame=23628 fps=361 q=-0.0 size=N/A time=00:16:25.48 bitrate=N/A speed=  15x    frame=23820 fps=361 q=-0.0 size=N/A time=00:16:33.49 bitrate=N/A speed=  15x    frame=24014 fps=361 q=-0.0 size=N/A time=00:16:41.58 bitrate=N/A speed=15.1x    frame=24199 fps=361 q=-0.0 size=N/A time=00:16:49.29 bitrate=N/A speed=15.1x    frame=24391 fps=361 q=-0.0 size=N/A time=00:16:57.30 bitrate=N/A speed=15.1x    frame=24592 fps=361 q=-0.0 size=N/A time=00:17:05.69 bitrate=N/A speed=15.1x    frame=24783 fps=361 q=-0.0 size=N/A time=00:17:13.65 bitrate=N/A speed=15.1x    frame=24976 fps=361 q=-0.0 size=N/A time=00:17:21.70 bitrate=N/A speed=15.1x    frame=25168 fps=361 q=-0.0 size=N/A time=00:17:29.71 bitrate=N/A speed=15.1x    frame=25364 fps=362 q=-0.0 size=N/A time=00:17:37.89 bitrate=N/A speed=15.1x    frame=25560 fps=362 q=-0.0 size=N/A time=00:17:46.06 bitrate=N/A speed=15.1x    frame=25749 fps=362 q=-0.0 size=N/A time=00:17:53.94 bitrate=N/A speed=15.1x    frame=25941 fps=362 q=-0.0 size=N/A time=00:18:01.95 bitrate=N/A speed=15.1x    frame=26138 fps=362 q=-0.0 size=N/A time=00:18:10.17 bitrate=N/A speed=15.1x    frame=26337 fps=362 q=-0.0 size=N/A time=00:18:18.47 bitrate=N/A speed=15.1x    frame=26538 fps=362 q=-0.0 size=N/A time=00:18:26.85 bitrate=N/A speed=15.1x    frame=26724 fps=362 q=-0.0 size=N/A time=00:18:34.61 bitrate=N/A speed=15.1x    frame=26922 fps=362 q=-0.0 size=N/A time=00:18:42.87 bitrate=N/A speed=15.1x    frame=27103 fps=362 q=-0.0 size=N/A time=00:18:50.42 bitrate=N/A speed=15.1x    frame=27291 fps=362 q=-0.0 size=N/A time=00:18:58.26 bitrate=N/A speed=15.1x    frame=27478 fps=362 q=-0.0 size=N/A time=00:19:06.06 bitrate=N/A speed=15.1x    frame=27670 fps=362 q=-0.0 size=N/A time=00:19:14.06 bitrate=N/A speed=15.1x    frame=27858 fps=362 q=-0.0 size=N/A time=00:19:21.91 bitrate=N/A speed=15.1x    frame=28042 fps=362 q=-0.0 size=N/A time=00:19:29.58 bitrate=N/A speed=15.1x    frame=28232 fps=362 q=-0.0 size=N/A time=00:19:37.50 bitrate=N/A speed=15.1x    frame=28427 fps=362 q=-0.0 size=N/A time=00:19:45.64 bitrate=N/A speed=15.1x    frame=28612 fps=362 q=-0.0 size=N/A time=00:19:53.35 bitrate=N/A speed=15.1x    frame=28794 fps=362 q=-0.0 size=N/A time=00:20:00.94 bitrate=N/A speed=15.1x    frame=28969 fps=362 q=-0.0 size=N/A time=00:20:08.24 bitrate=N/A speed=15.1x    frame=29151 fps=362 q=-0.0 size=N/A time=00:20:15.83 bitrate=N/A speed=15.1x    frame=29332 fps=362 q=-0.0 size=N/A time=00:20:23.38 bitrate=N/A speed=15.1x    frame=29502 fps=362 q=-0.0 size=N/A time=00:20:30.47 bitrate=N/A speed=15.1x    frame=29690 fps=362 q=-0.0 size=N/A time=00:20:38.32 bitrate=N/A speed=15.1x    frame=29870 fps=362 q=-0.0 size=N/A time=00:20:45.82 bitrate=N/A speed=15.1x    frame=30041 fps=362 q=-0.0 size=N/A time=00:20:52.96 bitrate=N/A speed=15.1x    frame=30227 fps=362 q=-0.0 size=N/A time=00:21:00.71 bitrate=N/A speed=15.1x    frame=30412 fps=362 q=-0.0 size=N/A time=00:21:08.43 bitrate=N/A speed=15.1x    frame=30612 fps=362 q=-0.0 size=N/A time=00:21:16.77 bitrate=N/A speed=15.1x    frame=30801 fps=362 q=-0.0 size=N/A time=00:21:24.65 bitrate=N/A speed=15.1x    frame=30993 fps=362 q=-0.0 size=N/A time=00:21:32.66 bitrate=N/A speed=15.1x    frame=31185 fps=362 q=-0.0 size=N/A time=00:21:40.67 bitrate=N/A speed=15.1x    frame=31374 fps=362 q=-0.0 size=N/A time=00:21:48.55 bitrate=N/A speed=15.1x    frame=31568 fps=362 q=-0.0 size=N/A time=00:21:56.64 bitrate=N/A speed=15.1x    frame=31755 fps=362 q=-0.0 size=N/A time=00:22:04.44 bitrate=N/A speed=15.1x    frame=31931 fps=362 q=-0.0 size=N/A time=00:22:11.78 bitrate=N/A speed=15.1x    frame=32120 fps=362 q=-0.0 size=N/A time=00:22:19.67 bitrate=N/A speed=15.1x    frame=32313 fps=362 q=-0.0 size=N/A time=00:22:27.72 bitrate=N/A speed=15.1x    frame=32504 fps=362 q=-0.0 size=N/A time=00:22:35.68 bitrate=N/A speed=15.1x    frame=32666 fps=362 q=-0.0 size=N/A time=00:22:42.44 bitrate=N/A speed=15.1x    frame=32838 fps=362 q=-0.0 size=N/A time=00:22:49.61 bitrate=N/A speed=15.1x    frame=33007 fps=361 q=-0.0 size=N/A time=00:22:56.66 bitrate=N/A speed=15.1x    frame=33193 fps=361 q=-0.0 size=N/A time=00:23:04.42 bitrate=N/A speed=15.1x    frame=33385 fps=361 q=-0.0 size=N/A time=00:23:12.43 bitrate=N/A speed=15.1x    frame=33546 fps=361 q=-0.0 size=N/A time=00:23:19.14 bitrate=N/A speed=15.1x    frame=33704 fps=361 q=-0.0 size=N/A time=00:23:25.73 bitrate=N/A speed=15.1x    frame=33836 fps=360 q=-0.0 size=N/A time=00:23:31.24 bitrate=N/A speed=  15x    frame=33976 fps=360 q=-0.0 size=N/A time=00:23:37.08 bitrate=N/A speed=  15x    frame=34152 fps=360 q=-0.0 size=N/A time=00:23:44.42 bitrate=N/A speed=  15x    frame=34317 fps=359 q=-0.0 size=N/A time=00:23:51.30 bitrate=N/A speed=  15x    frame=34447 fps=359 q=-0.0 size=N/A time=00:23:56.72 bitrate=N/A speed=  15x    frame=34626 fps=359 q=-0.0 size=N/A time=00:24:04.19 bitrate=N/A speed=  15x    [Parsed_ssim_16 @ 000001c6c824d840] SSIM Y:0.993892 (22.141362) U:0.993956 (22.186739) V:0.993564 (21.913999) All:0.993848 (22.110095)
[out#0/null @ 000001c6bb1c8a00] video:14903KiB audio:271276KiB subtitle:0KiB other streams:0KiB global headers:0KiB muxing overhead: unknown
frame=34683 fps=359 q=-0.0 Lsize=N/A time=00:24:06.57 bitrate=N/A speed=  15x    
